<svg xmlns="http://www.w3.org/2000/svg" width="58" height="58" viewBox="0 0 58 58">
  <g id="Group_13995" data-name="Group 13995" transform="translate(-166 -589)">
    <circle id="Ellipse_596" data-name="Ellipse 596" cx="29" cy="29" r="29" transform="translate(166 589)" fill="#fadad7"/>
    <g id="_3844425_can_trash_icon" data-name="3844425_can_trash_icon" transform="translate(182 604)">
      <path id="XMLID_237_" d="M6,12V28.181a3.1,3.1,0,0,0,2.929,3.236H22.6a3.1,3.1,0,0,0,2.929-3.236V12Zm5.858,14.023a.981.981,0,1,1-1.953,0V16.315a.981.981,0,1,1,1.953,0Zm4.882,0a.981.981,0,1,1-1.953,0V16.315a.981.981,0,1,1,1.953,0Zm4.882,0a.981.981,0,1,1-1.953,0V16.315a.981.981,0,1,1,1.953,0Z" transform="translate(-2.764 -3.417)" fill="#e74c3c"/>
      <path id="XMLID_243_" d="M27,6.315H21V5.236A3.129,3.129,0,0,0,18,2H14a3.129,3.129,0,0,0-3,3.236V6.315H5A2.085,2.085,0,0,0,3,8.472V9.551A1.042,1.042,0,0,0,4,10.63H28a1.042,1.042,0,0,0,1-1.079V8.472A2.085,2.085,0,0,0,27,6.315ZM13,5.236a1.043,1.043,0,0,1,1-1.079h4a1.043,1.043,0,0,1,1,1.079V6.315H13Z" transform="translate(-3 -2)" fill="#e74c3c"/>
    </g>
  </g>
</svg>